<svg width="300" height="424" viewBox="0 0 300 424" fill="none" xmlns="http://www.w3.org/2000/svg">
<path d="M91.5295 20.8192C86.2564 14.3083 89.0167 4.94654 97.3178 3.12624C112.018 -0.151411 127.681 -0.929251 143.612 1.16109C213.676 10.3545 263.354 71.6944 254.623 138.234C252.895 151.406 249.007 163.835 243.325 175.187L373 335.305C392.497 359.379 387.993 393.702 362.946 411.931C337.899 430.159 301.757 425.417 282.261 401.344L152.585 241.226C139.549 243.497 125.957 243.857 112.007 242.027C41.9423 232.834 -7.73547 171.494 0.995293 104.954C2.98045 89.825 7.81918 75.6826 14.9569 63.0669C18.9564 55.935 29.2 55.9009 34.483 62.3366L96.0251 138.326C98.1066 140.896 101.188 142.602 104.517 143.039L137.33 147.345C144.305 148.26 150.723 143.589 151.592 136.965L155.681 105.803C156.096 102.642 155.153 99.3789 153.072 96.8088L91.5295 20.8192Z" fill="#CCCCCD"/>
</svg>
