<svg width="1000" height="267" viewBox="0 0 1000 267" fill="none" xmlns="http://www.w3.org/2000/svg">
<path d="M210.51 15.39L202.82 59.1C202.12 62.95 199.32 65.74 195.48 65.74H194.78C180.79 64.69 141.28 61.19 116.1 61.19C106.31 61.19 96.17 64.34 96.17 75.88C96.17 80.78 99.67 83.92 111.56 90.92L154.22 116.1C179.4 130.79 189.19 150.02 189.19 174.5C189.19 239.89 134.29 266.47 74.84 266.47C46.17 266.47 23.78 262.62 5.95 257.38C2.8 256.33 0 254.58 0 251.44V250.39L7.34 207.38C8.04 203.54 11.19 200.39 15.38 200.39H16.08C30.42 201.79 67.49 205.63 86.02 205.63C100.01 205.63 111.55 200.73 111.55 185C111.55 179.75 108.05 175.91 97.91 169.26L52.8 139.53C32.52 126.24 22.72 103.51 22.72 81.83C22.72 18.88 72.03 0 127.63 0C155.26 0 191.63 4.55 205.27 8.74C208.06 9.79 210.51 11.19 210.51 14.33V15.38V15.39Z" fill="white"/>
<path d="M409.15 11.19L401.81 53.85C401.11 57.7 397.26 60.84 393.42 60.84H322.78C310.19 60.84 305.29 65.04 302.85 78.33L298.3 103.86H384.32C387.82 103.86 390.26 106.31 390.26 109.81V110.86L382.92 152.13C382.22 155.97 378.72 159.12 374.87 159.12H288.85L283.6 188.14C283.25 190.94 282.9 193.04 282.9 195.14C282.9 203.18 287.1 205.63 297.24 205.63H367.88C371.38 205.63 373.83 208.08 373.83 211.58V212.63L366.14 255.29C365.44 259.49 362.64 261.59 358.1 262.29C344.46 264.04 323.13 266.49 289.21 266.49C248.29 266.49 210.88 251.8 210.88 205.99C210.88 200.39 211.58 194.45 212.63 188.15L231.86 78.35C244.09 7.68999 286.06 0 335.36 0C369.28 0 390.61 2.45 403.55 4.2C407.4 4.55 409.14 6.3 409.14 9.79V11.19H409.15Z" fill="white"/>
<path d="M657.1 10.4902L615.14 250.38C613.74 257.38 606.74 263.32 599.75 263.32H556.39C550.1 263.32 546.25 260.53 543.45 253.88L491.69 136.73C490.64 134.28 489.59 133.93 488.54 133.93C487.49 133.93 486.79 134.63 486.44 137.08L465.46 256.33C464.76 260.17 460.91 263.32 457.07 263.32H404.62C401.12 263.32 398.67 260.87 398.67 257.38V256.33L440.63 16.4302C442.03 9.44024 449.03 3.49023 456.02 3.49023H498.68C505.32 3.49023 508.12 7.69023 510.92 13.6302L564.07 134.28C565.12 136.73 565.47 137.43 566.52 137.43C567.57 137.43 568.62 137.08 568.97 134.28L590.65 10.4902C591.35 6.64023 595.2 3.50023 599.05 3.50023H651.5C655 3.50023 657.1 5.95023 657.1 9.10023V10.5002V10.4902Z" fill="white"/>
<path d="M856.09 263.32H796.64C793.14 263.32 790.7 260.17 790.7 256.68L789.65 208.07H727.4L708.87 256.68C707.47 260.18 704.33 263.32 700.82 263.32H638.92C635.77 263.32 634.03 261.57 634.03 258.78C634.03 258.08 634.38 257.03 634.73 255.98L719.36 41.9701C732.99 7.3401 760.62 0.350098 793.85 0.350098C827.08 0.350098 852.25 7.3401 853.65 41.9601L862.74 255.97V256.32C862.74 260.16 859.94 263.31 856.1 263.31L856.09 263.32ZM787.9 63.2901C787.9 60.1401 787.9 58.4001 784.76 58.4001C781.62 58.4001 781.26 60.1501 780.21 63.2901L747.34 152.12H789.31L787.91 63.2901H787.9Z" fill="white"/>
<path d="M999.88 10.14C1000.58 5.6 997.78 3.5 993.93 3.5H936.58C932.73 3.5 929.23 6.29 928.53 10.14L917.6 72.21L995.36 35.77L999.87 10.14H999.88Z" fill="white"/>
<path d="M912.71 100.03L885.18 256.33C884.48 259.83 886.58 263.33 890.78 263.33H948.13C953.38 263.33 955.83 260.18 956.53 256.33L990.48 63.5898L912.72 100.03H912.71Z" fill="white"/>
</svg>
